<svg id="Layer_1" enable-background="new 0 0 512 512" height="512" viewBox="0 0 512 512" width="512" xmlns="http://www.w3.org/2000/svg"><g><g><path d="m416 0h-320.001c-16.542 0-29.999 13.458-29.999 30v452c0 16.542 13.458 30 30 30h320c16.542 0 30-13.458 30-30v-452c0-16.542-13.458-30-30-30zm10 482c0 5.514-4.486 10-10 10h-320.001c-5.514 0-10-4.486-10-10v-452c0-5.514 4.486-10 10-10h320.001c5.514 0 10 4.486 10 10z"/><path d="m395.998 40.001h-279.997c-5.523 0-10 4.477-10 10v200c0 5.523 4.477 10 10 10h95.002c5.523 0 10-4.477 10-10s-4.477-10-10-10h-85.002v-180h259.997v180h-84.995c-5.523 0-10 4.477-10 10s4.477 10 10 10h94.995c5.523 0 10-4.477 10-10v-200c0-5.523-4.477-10-10-10z"/><path d="m246 110.001c0-16.542-13.458-30-30-30s-30 13.458-30 30 13.458 30 30 30 30-13.458 30-30zm-40 0c0-5.514 4.486-10 10-10s10 4.486 10 10-4.486 10-10 10-10-4.486-10-10z"/><path d="m296 220.001c16.542 0 30-13.458 30-30s-13.458-30-30-30-30 13.458-30 30 13.458 30 30 30zm0-40c5.514 0 10 4.486 10 10s-4.486 10-10 10-10-4.486-10-10 4.486-10 10-10z"/><path d="m216.359 218.661c1.575.91 3.294 1.342 4.991 1.342 3.456 0 6.817-1.794 8.669-5.002l69.282-120c2.762-4.783 1.123-10.899-3.66-13.66-4.782-2.762-10.899-1.123-13.66 3.66l-69.282 120c-2.762 4.783-1.124 10.899 3.66 13.66z"/><path d="m395.998 280.001h-279.997c-5.523 0-10 4.477-10 10v171.997c0 5.523 4.477 10 10 10h279.997c5.523 0 10-4.477 10-10v-171.997c0-5.523-4.477-10-10-10zm-90.003 171.997h-79.997v-65.998h79.997zm0-85.998h-79.997v-65.999h79.997zm-99.997-65.999v65.999h-79.997v-65.999zm-79.997 85.999h79.997v65.999h-79.997zm259.997 65.998h-60.003v-151.997h60.003z"/><path d="m256.007 240.001h-.007c-5.523 0-9.996 4.477-9.996 10s4.48 10 10.003 10 10-4.477 10-10-4.477-10-10-10z"/></g></g></svg>