<svg id="Layer_1" enable-background="new 0 0 512 512" height="512" viewBox="0 0 512 512" width="512" xmlns="http://www.w3.org/2000/svg"><path d="m464.054 0h-416.108c-8.252 0-14.942 6.716-14.942 15v482c0 8.284 6.69 15 14.942 15h416.109c8.252 0 14.942-6.716 14.942-15v-482c-.001-8.284-6.691-15-14.943-15zm-257.129 223.867c0-27.166 22.015-49.267 49.075-49.267s49.075 22.101 49.075 49.267-22.015 49.266-49.075 49.266-49.075-22.101-49.075-49.266zm96.39 193.866h-175.551c7.429-64.422 62.106-114.6 128.236-114.6 42.339 0 82 21.075 106.014 55.67zm81.781-82.102-1.705 1.712c-18.929-25.405-44.885-44.436-74.208-54.942 15.828-14.506 25.776-35.375 25.776-58.534 0-43.708-35.42-79.267-78.959-79.267s-78.959 35.559-78.959 79.267c0 23.131 9.924 43.976 25.718 58.48-30.729 10.998-57.123 31.235-75.856 57.365v-245.445h258.192v241.364zm-322.209-305.631h386.225v241.365l-34.133 34.267v-226.365c0-8.284-6.69-15-14.942-15h-288.075c-8.252 0-14.942 6.716-14.942 15v353.467c0 8.284 6.69 15 14.942 15h161.469l-34.132 34.266h-176.412zm386.226 283.791v48.462l-119.281 119.747h-48.273zm0 168.209h-77.02l77.02-77.32z"/></svg>