<svg id="Capa_1" enable-background="new 0 0 512 512" height="512" viewBox="0 0 512 512" width="512" xmlns="http://www.w3.org/2000/svg"><g><path d="m255.999 226.947c-55.575 0-100.788 45.213-100.788 100.788s45.213 100.788 100.788 100.788 100.788-45.213 100.788-100.788-45.213-100.788-100.788-100.788zm0 186.575c-47.304 0-85.788-38.484-85.788-85.788s38.484-85.788 85.788-85.788 85.788 38.484 85.788 85.788-38.485 85.788-85.788 85.788z"/><path d="m277.369 300.914c0 4.142 3.357 7.5 7.5 7.5s7.5-3.358 7.5-7.5c0-16.499-12.402-30.312-28.87-33.583v-2.114c0-4.142-3.357-7.5-7.5-7.5s-7.5 3.358-7.5 7.5v2.114c-16.468 3.271-28.87 17.084-28.87 33.583s12.402 30.312 28.87 33.583v38.126c-8.089-2.754-13.87-9.803-13.87-18.068 0-4.142-3.357-7.5-7.5-7.5s-7.5 3.358-7.5 7.5c0 16.499 12.402 30.312 28.87 33.583v2.114c0 4.142 3.357 7.5 7.5 7.5s7.5-3.358 7.5-7.5v-2.114c16.468-3.271 28.87-17.084 28.87-33.583 0-16.498-12.402-30.311-28.87-33.582v-38.126c8.089 2.753 13.87 9.802 13.87 18.067zm-28.87 18.068c-8.089-2.754-13.87-9.803-13.87-18.068s5.781-15.314 13.87-18.068zm28.87 35.572c0 8.265-5.781 15.314-13.87 18.068v-36.136c8.089 2.755 13.87 9.804 13.87 18.068z"/><path d="m422.987 453.161v-67.807c0-4.142-3.357-7.5-7.5-7.5s-7.5 3.358-7.5 7.5v67.807c0 9.515 3.706 18.461 10.434 25.188 6.901 6.901 2.057 18.651-7.726 18.651h-309.393c-9.76 0-14.642-11.733-7.725-18.651 6.728-6.729 10.433-15.674 10.433-25.189v-163.369c0-49.979 21.833-97.219 59.901-129.604l29.371-24.987c1.722.425 3.629.656 5.383.656h114.666c1.705 0 3.612-.219 5.384-.656l29.371 24.987c38.067 32.386 59.9 79.625 59.9 129.604v60.562c0 4.142 3.357 7.5 7.5 7.5s7.5-3.358 7.5-7.5v-60.562c0-54.385-23.758-105.789-65.181-141.029l-26.207-22.296c2.66-3.695 4.232-8.221 4.232-13.111 0-5.758-2.177-11.016-5.748-15 3.571-3.984 5.748-9.242 5.748-15 0-7.248-3.449-13.703-8.788-17.821 3.584-11.344 6.21-22.548 7.799-33.384 1.188-8.104-1.193-16.298-6.535-22.481-5.307-6.145-13.012-9.669-21.134-9.669h-33.674c-4.143 0-7.5 3.358-7.5 7.5s3.357 7.5 7.5 7.5h33.674c3.815 0 7.291 1.59 9.785 4.477 2.49 2.882 3.6 6.708 3.044 10.497-1.466 9.995-3.883 20.357-7.2 30.881h-113.605c-3.317-10.524-5.734-20.886-7.2-30.881-.556-3.789.554-7.615 3.044-10.497 2.494-2.887 5.97-4.477 9.785-4.477h33.674c4.143 0 7.5-3.358 7.5-7.5s-3.357-7.5-7.5-7.5h-33.674c-8.122 0-15.826 3.524-21.136 9.669-5.342 6.183-7.724 14.376-6.535 22.481 1.589 10.836 4.215 22.04 7.799 33.384-5.339 4.118-8.788 10.572-8.788 17.821 0 5.758 2.177 11.016 5.748 15-3.571 3.984-5.748 9.242-5.748 15 0 4.89 1.573 9.417 4.232 13.111l-26.206 22.295c-41.424 35.241-65.182 86.644-65.182 141.029v163.37c0 5.509-2.145 10.688-6.04 14.583-16.332 16.335-4.79 44.257 18.333 44.257h309.393c23.097 0 34.684-27.903 18.332-44.257-3.896-3.895-6.04-9.074-6.04-14.582zm-224.322-377.306h114.666c4.042 0 7.5 3.289 7.5 7.5 0 4.136-3.364 7.5-7.5 7.5h-114.666c-4.136 0-7.5-3.364-7.5-7.5 0-4.195 3.44-7.5 7.5-7.5zm0 30h114.666c4.136 0 7.5 3.364 7.5 7.5 0 4.275-3.528 7.5-7.5 7.5h-114.666c-3.98 0-7.5-3.232-7.5-7.5 0-4.136 3.365-7.5 7.5-7.5z"/></g></svg>